<?xml version="1.0"?>
<svg xmlns="http://www.w3.org/2000/svg" xmlns:xlink="http://www.w3.org/1999/xlink" xmlns:svgjs="http://svgjs.com/svgjs" version="1.1" width="24" height="24" x="0" y="0" viewBox="0 0 512 512" style="enable-background:new 0 0 512 512" xml:space="preserve" class=""><g transform="matrix(-1,0,0,1,512,0)">
<g xmlns="http://www.w3.org/2000/svg">
	<g>
		<path d="M497,0H15C6.716,0,0,6.716,0,15v482c0,8.284,6.716,15,15,15h482c8.284,0,15-6.716,15-15V15C512,6.716,505.284,0,497,0z     M376,211c-8.284,0-15-6.716-15-15v-23.787L172.213,361H196c8.284,0,15,6.716,15,15s-6.716,15-15,15h-60    c-4.087,0-7.919-1.706-10.606-4.393c-2.819-2.818-4.379-6.685-4.391-10.562c0-0.015-0.002-0.029-0.002-0.044v-60    c0-8.284,6.716-15,15-15c8.284,0,15,6.716,15,15v23.787L339.787,151H316c-8.284,0-15-6.716-15-15s6.716-15,15-15h59.997    c4.033,0,7.89,1.677,10.607,4.391c0.001,0.001,0.002,0.001,0.002,0.002c2.637,2.634,4.379,6.468,4.391,10.562    c0,0.015,0.002,0.029,0.002,0.044V196H391C391,204.284,384.284,211,376,211z" fill="#000000" data-original="#000000" style="" class=""/>
	</g>
</g>
<g xmlns="http://www.w3.org/2000/svg">
</g>
<g xmlns="http://www.w3.org/2000/svg">
</g>
<g xmlns="http://www.w3.org/2000/svg">
</g>
<g xmlns="http://www.w3.org/2000/svg">
</g>
<g xmlns="http://www.w3.org/2000/svg">
</g>
<g xmlns="http://www.w3.org/2000/svg">
</g>
<g xmlns="http://www.w3.org/2000/svg">
</g>
<g xmlns="http://www.w3.org/2000/svg">
</g>
<g xmlns="http://www.w3.org/2000/svg">
</g>
<g xmlns="http://www.w3.org/2000/svg">
</g>
<g xmlns="http://www.w3.org/2000/svg">
</g>
<g xmlns="http://www.w3.org/2000/svg">
</g>
<g xmlns="http://www.w3.org/2000/svg">
</g>
<g xmlns="http://www.w3.org/2000/svg">
</g>
<g xmlns="http://www.w3.org/2000/svg">
</g>
</g></svg>
